<svg id="Icons" height="512" viewBox="0 0 74 74" width="512" xmlns="http://www.w3.org/2000/svg"><path d="m20 12h34v2h-34z"/><path d="m67 72h-60a5 5 0 0 1 -5-5v-50a5 5 0 0 1 5-5h7v2h-7a3 3 0 0 0 -3 3v50a3 3 0 0 0 3 3h60a3 3 0 0 0 3-3v-50a3 3 0 0 0 -3-3h-7v-2h7a5 5 0 0 1 5 5v50a5 5 0 0 1 -5 5z"/><path d="m3 22h68v2h-68z"/><path d="m57 20a4 4 0 0 1 -4-4v-10a4 4 0 0 1 8 0v10a4 4 0 0 1 -4 4zm0-16a2 2 0 0 0 -2 2v10a2 2 0 0 0 4 0v-10a2 2 0 0 0 -2-2z"/><path d="m17 20a4 4 0 0 1 -4-4v-10a4 4 0 0 1 8 0v10a4 4 0 0 1 -4 4zm0-16a2 2 0 0 0 -2 2v10a2 2 0 0 0 4 0v-10a2 2 0 0 0 -2-2z"/><path d="m48 37h-6a1 1 0 0 1 -1-1v-6a1 1 0 0 1 1-1h6a1 1 0 0 1 1 1v6a1 1 0 0 1 -1 1zm-5-2h4v-4h-4z"/><path d="m64 37h-6a1 1 0 0 1 -1-1v-6a1 1 0 0 1 1-1h6a1 1 0 0 1 1 1v6a1 1 0 0 1 -1 1zm-5-2h4v-4h-4z"/><path d="m16 51h-6a1 1 0 0 1 -1-1v-6a1 1 0 0 1 1-1h6a1 1 0 0 1 1 1v6a1 1 0 0 1 -1 1zm-5-2h4v-4h-4z"/><path d="m32 51h-6a1 1 0 0 1 -1-1v-6a1 1 0 0 1 1-1h6a1 1 0 0 1 1 1v6a1 1 0 0 1 -1 1zm-5-2h4v-4h-4z"/><path d="m48 51h-6a1 1 0 0 1 -1-1v-6a1 1 0 0 1 1-1h6a1 1 0 0 1 1 1v6a1 1 0 0 1 -1 1zm-5-2h4v-4h-4z"/><path d="m64 51h-6a1 1 0 0 1 -1-1v-6a1 1 0 0 1 1-1h6a1 1 0 0 1 1 1v6a1 1 0 0 1 -1 1zm-5-2h4v-4h-4z"/><path d="m16 65h-6a1 1 0 0 1 -1-1v-6a1 1 0 0 1 1-1h6a1 1 0 0 1 1 1v6a1 1 0 0 1 -1 1zm-5-2h4v-4h-4z"/><path d="m32 65h-6a1 1 0 0 1 -1-1v-6a1 1 0 0 1 1-1h6a1 1 0 0 1 1 1v6a1 1 0 0 1 -1 1zm-5-2h4v-4h-4z"/></svg>